<?xml version="1.0" standalone="no"?>
<!DOCTYPE svg PUBLIC "-//W3C//DTD SVG 20010904//EN"
 "http://www.w3.org/TR/2001/REC-SVG-20010904/DTD/svg10.dtd">
<svg version="1.0" xmlns="http://www.w3.org/2000/svg"
 width="2000.000000pt" height="2000.000000pt" viewBox="0 0 2000.000000 2000.000000"
 preserveAspectRatio="xMidYMid meet">

<g transform="translate(0.000000,2000.000000) scale(0.100000,-0.100000)"
fill="#000000" stroke="none">
<path d="M9740 16000 c-1718 -74 -3319 -881 -4406 -2221 -822 -1012 -1287
-2255 -1333 -3556 -30 -858 109 -1666 421 -2453 85 -214 298 -647 408 -830
536 -890 1243 -1596 2120 -2117 1464 -870 3269 -1069 4900 -542 732 237 1403
608 2000 1105 1183 985 1946 2395 2119 3919 155 1358 -153 2733 -867 3870
-254 404 -507 721 -857 1070 -365 366 -723 647 -1155 907 -1001 602 -2170 898
-3350 848z m655 -170 c1768 -127 3341 -1007 4371 -2447 871 -1217 1234 -2729
1018 -4238 -120 -842 -441 -1674 -925 -2397 -919 -1372 -2386 -2298 -4011
-2533 -504 -72 -1058 -79 -1548 -19 -1553 190 -2953 983 -3913 2217 -938 1205
-1362 2720 -1191 4252 101 905 430 1804 937 2565 1011 1515 2649 2470 4457
2599 168 12 643 12 805 1z"/>
<path d="M9737 15531 c-21 -5 -43 -13 -49 -19 -8 -8 -5 -81 11 -264 12 -139
24 -271 27 -293 7 -44 29 -76 -255 373 -61 96 -109 163 -119 163 -36 3 -98 -4
-114 -12 -12 -7 -18 -22 -18 -47 0 -46 69 -848 76 -880 2 -12 16 -27 29 -32
28 -11 110 1 127 18 8 8 3 96 -15 299 -14 158 -28 297 -32 308 -3 11 5 0 19
-25 14 -25 98 -160 188 -300 l163 -255 52 -3 c76 -4 93 8 93 66 -1 99 -76 882
-85 891 -16 15 -56 20 -98 12z"/>
<path d="M10461 15493 c-57 -20 -129 -92 -164 -163 -54 -111 -70 -199 -71
-385 -1 -154 1 -175 22 -226 30 -76 81 -132 150 -166 51 -25 68 -28 157 -28
84 0 107 4 141 22 137 73 218 278 218 553 0 226 -69 348 -223 394 -68 20 -172
19 -230 -1z m197 -163 c53 -33 72 -87 72 -210 0 -113 -11 -200 -37 -294 -12
-43 -28 -71 -59 -104 -42 -44 -44 -45 -95 -40 -71 7 -112 50 -129 134 -23 107
7 349 54 444 41 83 123 113 194 70z"/>
<path d="M8185 15221 c-132 -47 -246 -90 -253 -94 -6 -5 -12 -17 -12 -27 0
-32 41 -131 57 -137 8 -3 48 5 89 17 41 13 76 22 78 19 2 -2 59 -159 125 -348
67 -190 127 -351 133 -358 14 -17 57 -16 104 2 63 25 83 37 88 51 3 8 -51 174
-120 370 -69 196 -122 359 -117 364 4 4 38 17 76 30 78 25 87 40 62 110 -20
56 -42 90 -58 89 -6 -1 -120 -40 -252 -88z"/>
<path d="M11743 15228 c-22 -30 -324 -838 -321 -859 4 -29 95 -79 144 -79 40
0 39 -2 105 172 28 73 54 137 58 141 4 4 28 -1 52 -11 133 -57 255 -22 333 97
63 95 94 243 66 316 -16 41 -67 100 -109 123 -56 32 -268 112 -295 112 -13 0
-28 -6 -33 -12z m225 -265 c27 -36 6 -132 -40 -180 -24 -25 -55 -29 -103 -11
l-32 11 37 96 c20 53 40 104 43 114 6 16 9 16 44 2 21 -9 44 -23 51 -32z"/>
<path d="M7454 14909 c-159 -61 -230 -222 -162 -370 33 -71 91 -137 143 -160
42 -18 167 -39 238 -39 55 0 104 -31 123 -76 14 -32 13 -38 -3 -66 -27 -47
-76 -68 -156 -68 -63 0 -68 -2 -77 -25 -11 -28 -4 -77 16 -117 40 -80 238 -46
346 59 60 58 81 113 76 202 -4 88 -28 145 -88 214 -57 65 -115 86 -263 96
-119 9 -122 9 -149 40 -35 39 -37 83 -4 116 23 23 81 45 121 45 39 1 48 15 43
68 -3 28 -12 62 -22 76 -15 23 -23 26 -74 25 -32 0 -80 -9 -108 -20z"/>
<path d="M12588 14863 c-8 -10 -117 -189 -242 -397 -142 -238 -226 -387 -224
-400 3 -23 84 -82 126 -93 14 -3 32 -1 41 4 9 5 50 67 91 136 41 69 78 129 82
133 11 10 56 -22 63 -46 4 -12 -11 -79 -35 -165 -24 -83 -40 -154 -37 -167 7
-26 92 -86 135 -94 17 -4 32 -1 39 8 5 7 29 87 53 178 35 137 41 175 36 223
-5 53 -4 57 15 57 109 0 231 129 254 267 9 59 -16 132 -65 182 -37 38 -281
191 -305 191 -7 0 -19 -8 -27 -17z m148 -268 c44 -33 49 -56 26 -107 -40 -89
-85 -112 -152 -78 -39 20 -41 22 -27 43 7 12 33 55 56 95 24 39 48 72 54 72 5
0 25 -11 43 -25z"/>
<path d="M6674 14404 c-62 -42 -98 -75 -112 -101 -12 -23 1 -55 189 -459 173
-372 205 -434 223 -434 30 0 136 86 136 110 0 12 -13 46 -29 78 -49 99 -51 92
34 157 84 65 69 66 160 -12 27 -24 59 -43 70 -43 11 0 46 21 78 46 46 36 58
50 55 69 -2 18 -97 100 -368 319 -201 163 -372 296 -381 296 -9 0 -34 -12 -55
-26z m385 -465 c1 -8 -109 -92 -113 -87 -2 1 -41 78 -87 169 l-85 166 142
-121 c79 -67 143 -124 143 -127z"/>
<path d="M13383 14241 c-129 -33 -295 -176 -409 -352 -118 -181 -109 -352 24
-470 155 -138 328 -121 514 51 93 85 190 211 232 300 26 56 31 76 31 150 0 64
-5 95 -20 125 -26 55 -120 146 -178 174 -51 25 -142 35 -194 22z m165 -236
c39 -42 41 -73 7 -141 -32 -65 -159 -217 -227 -273 -99 -81 -152 -88 -208 -25
-36 42 -38 72 -6 139 45 98 210 279 295 325 51 28 97 20 139 -25z"/>
<path d="M9730 14104 c-19 -2 -84 -9 -145 -14 -903 -86 -1766 -487 -2443
-1134 -349 -335 -674 -792 -877 -1236 -206 -448 -326 -916 -366 -1425 -16
-206 -6 -603 21 -805 62 -466 179 -867 373 -1274 125 -261 310 -554 503 -796
138 -173 450 -485 624 -624 138 -111 412 -297 555 -378 384 -218 841 -384
1268 -463 295 -54 367 -59 757 -59 382 0 466 6 737 55 973 175 1863 707 2482
1484 505 633 805 1383 882 2205 15 161 15 559 0 720 -30 324 -105 673 -207
970 -138 402 -338 783 -590 1121 -448 601 -1073 1085 -1754 1360 -338 136
-701 229 -1070 274 -127 16 -661 29 -750 19z m710 -179 c1125 -129 2120 -715
2781 -1637 47 -65 93 -132 103 -149 22 -38 32 -39 -115 14 -381 137 -854 178
-1269 112 -318 -52 -667 -179 -937 -343 l-81 -49 -654 -57 c-359 -31 -664 -56
-678 -56 -23 0 -27 7 -48 93 -13 54 -45 139 -78 206 -52 107 -54 114 -37 126
162 118 481 377 491 399 11 22 11 33 2 57 -28 68 -84 66 -176 -4 -38 -30 -152
-117 -252 -195 l-184 -142 -66 61 c-72 66 -170 134 -244 170 -27 13 -48 27
-48 31 0 7 442 1254 468 1319 13 33 11 32 362 63 96 8 532 -4 660 -19z m-1254
-207 c-68 -192 -372 -1047 -385 -1081 l-10 -25 -63 16 c-43 11 -114 16 -221
16 l-158 1 -9 35 c-5 19 -48 202 -95 405 -47 204 -88 378 -91 388 -5 15 20 30
138 86 286 138 537 224 883 304 70 16 69 21 11 -145z m-1092 -700 c49 -211 91
-390 93 -399 4 -12 -13 -23 -64 -43 -90 -36 -180 -87 -257 -145 l-63 -48 -253
246 -253 247 44 41 c146 137 367 306 564 431 44 28 85 51 90 51 6 1 50 -171
99 -381z m-656 -506 l253 -247 -40 -54 c-48 -64 -122 -205 -146 -278 -11 -36
-22 -53 -33 -53 -38 0 -842 166 -842 174 0 26 265 394 370 513 106 121 173
193 179 193 3 -1 120 -112 259 -248z m1260 -48 c269 -54 507 -243 628 -499 67
-143 78 -196 79 -380 0 -170 -9 -222 -59 -347 -79 -194 -246 -370 -441 -465
-279 -134 -589 -120 -858 38 -92 53 -258 219 -310 309 -311 537 -18 1209 588
1345 84 19 279 18 373 -1z m3828 -334 c139 -11 295 -34 359 -52 38 -11 35 -12
-84 -24 -150 -16 -299 -44 -444 -85 -126 -36 -277 -90 -312 -113 -50 -33 -41
-106 17 -133 22 -11 42 -7 169 38 278 98 491 137 790 146 266 8 294 -1 119
-36 -348 -71 -699 -222 -987 -425 -77 -54 -99 -89 -83 -130 10 -29 47 -56 74
-56 10 0 71 35 135 78 347 234 779 388 1168 418 l91 7 30 -60 c93 -182 209
-504 268 -738 32 -128 85 -406 79 -413 -1 -1 -49 13 -106 32 -696 232 -1471
10 -1931 -552 -88 -107 -145 -158 -217 -194 -124 -62 -263 -37 -381 67 -71 65
-91 67 -176 28 -48 -23 -73 -28 -134 -28 -128 0 -204 48 -342 213 -35 43 -71
42 -138 -3 -135 -91 -279 -85 -386 17 -93 88 -119 206 -76 340 52 159 143 351
246 513 181 288 455 567 736 751 448 293 996 435 1516 394z m-5075 -575 c4
-97 13 -183 23 -218 20 -72 21 -66 -11 -78 -16 -5 -122 -46 -237 -91 -196 -77
-210 -84 -222 -115 -22 -52 16 -114 71 -113 11 1 121 41 245 90 197 78 226 87
235 73 86 -136 138 -208 195 -266 l69 -70 -116 -161 c-330 -457 -424 -584
-436 -593 -6 -5 -48 -17 -92 -27 -280 -63 -670 -211 -988 -373 -59 -30 -110
-54 -112 -52 -11 13 -27 399 -22 549 7 189 25 392 37 426 5 11 23 25 41 31 19
6 122 45 229 87 202 79 240 104 240 151 0 36 -41 78 -76 78 -16 0 -112 -32
-213 -72 -101 -39 -185 -70 -187 -68 -9 9 77 348 128 501 61 184 219 549 273
632 l14 22 453 -92 453 -91 6 -160z m3060 -22 c-176 -177 -302 -337 -412 -525
-40 -68 -73 -125 -75 -126 -2 -3 -208 104 -451 234 l-81 44 19 51 c30 79 57
203 65 295 4 46 7 84 8 85 0 1 240 23 531 49 292 26 535 48 541 49 6 0 -59
-70 -145 -156z m-827 -660 c144 -75 263 -138 265 -139 2 -2 -15 -52 -37 -111
-61 -165 -65 -181 -65 -262 0 -132 39 -233 127 -328 113 -122 267 -167 434
-128 34 8 80 24 101 34 l38 20 49 -50 c61 -63 132 -110 209 -139 79 -31 234
-34 312 -7 l51 18 65 -44 c149 -102 331 -122 485 -52 l52 24 0 -22 c0 -12 -7
-60 -15 -107 -76 -432 -308 -811 -655 -1072 -74 -56 -187 -128 -201 -128 -17
0 -277 235 -518 468 -262 255 -370 356 -443 415 -25 20 -63 76 -112 161 -40
72 -122 217 -181 321 -59 105 -138 244 -175 310 -37 66 -105 185 -150 265 -45
80 -111 197 -147 260 l-64 115 38 30 c72 56 175 160 221 223 25 34 48 62 51
62 2 0 122 -61 265 -137z m-1662 -237 c75 -42 223 -92 296 -102 50 -6 52 -8
51 -38 -1 -78 -25 -446 -29 -449 -3 -3 -48 2 -100 10 -123 19 -511 22 -639 5
-51 -7 -95 -11 -96 -10 -2 4 445 618 450 618 2 0 33 -15 67 -34z m1105 -306
c85 -151 220 -389 299 -529 79 -139 144 -255 144 -257 0 -2 -35 18 -77 44
-265 166 -552 295 -848 382 l-130 38 3 158 c2 88 6 202 10 254 l7 95 72 6 c93
9 201 34 278 64 33 13 66 23 73 22 7 -1 83 -126 169 -277z m4191 178 c28 -37
71 -374 78 -628 14 -459 -59 -890 -223 -1305 -83 -212 -228 -481 -348 -646
l-33 -46 -107 -7 c-59 -4 -109 -6 -111 -3 -2 2 17 30 43 63 91 116 225 331
293 469 152 308 236 579 292 935 19 127 22 183 22 445 0 308 -13 450 -60 653
-8 35 -12 68 -8 73 8 14 150 11 162 -3z m-583 -144 c36 -155 49 -290 49 -494
0 -378 -65 -660 -229 -995 -165 -339 -414 -641 -716 -868 l-76 -57 -88 25
c-49 14 -95 29 -103 34 -10 6 8 23 67 65 285 200 500 425 669 702 273 447 373
980 276 1479 -8 44 -17 87 -20 97 -4 13 13 23 73 46 43 17 79 29 81 27 2 -2 9
-29 17 -61z m-4660 -454 c485 -40 964 -216 1432 -526 222 -147 361 -265 668
-564 382 -373 505 -483 686 -618 306 -226 653 -375 1043 -447 207 -38 361 -48
624 -42 251 5 409 22 629 66 72 15 129 22 125 16 -21 -35 -146 -204 -212 -285
-158 -195 -410 -445 -610 -607 -101 -81 -361 -256 -490 -330 -862 -494 -1868
-645 -2844 -427 -482 108 -989 333 -1391 618 -383 271 -737 630 -1002 1016
-295 430 -504 933 -609 1463 -25 127 -25 131 -7 145 35 28 439 221 563 270
492 194 994 285 1395 252z"/>
<path d="M10551 13259 c-193 -148 -358 -281 -367 -294 -20 -31 -11 -79 19
-100 46 -32 78 -20 198 73 63 49 223 172 355 275 133 103 245 194 248 203 12
32 5 66 -19 89 -49 50 -55 47 -434 -246z"/>
<path d="M6022 13772 c-129 -46 -232 -186 -232 -314 0 -137 136 -326 330 -458
116 -78 163 -95 271 -95 94 0 97 1 152 37 65 44 128 118 152 182 26 67 18 175
-18 246 -52 103 -183 238 -317 328 -122 81 -243 108 -338 74z m143 -206 c106
-49 299 -228 336 -311 l20 -46 -21 -43 c-55 -114 -168 -81 -366 107 -143 136
-172 202 -117 267 46 55 76 60 148 26z"/>
<path d="M14008 13457 c-512 -391 -558 -428 -558 -449 0 -11 33 -63 73 -116
154 -204 210 -246 322 -245 147 1 287 138 273 266 l-5 44 67 -5 c79 -5 134 15
199 74 63 56 85 105 78 174 -6 74 -26 111 -137 255 -92 121 -105 135 -127 135
-6 0 -89 -60 -185 -133z m220 -165 c17 -26 32 -59 32 -73 0 -51 -118 -132
-159 -109 -11 5 -34 28 -51 51 -32 40 -33 41 -14 59 23 22 147 119 154 119 3
1 20 -20 38 -47z m-309 -243 c49 -61 52 -94 15 -139 -27 -31 -91 -70 -117 -70
-20 0 -60 33 -96 79 l-31 39 92 71 c51 39 94 71 95 71 1 0 20 -23 42 -51z"/>
<path d="M5454 13090 c-27 -10 -76 -73 -109 -138 -51 -101 -53 -199 -6 -290
90 -174 462 -388 636 -367 107 13 200 90 257 210 42 91 42 122 -1 152 -64 44
-141 49 -141 10 0 -33 -52 -115 -84 -132 -69 -37 -204 4 -351 110 -152 108
-177 190 -90 293 19 22 35 45 35 51 0 19 -70 89 -98 99 -15 5 -37 6 -48 2z"/>
<path d="M14343 12563 c-263 -141 -404 -222 -408 -234 -7 -20 141 -311 180
-357 l21 -24 51 22 c28 12 62 33 74 46 l24 25 -52 97 -51 97 310 165 c378 201
368 195 368 220 0 45 -77 161 -104 159 -6 0 -192 -97 -413 -216z"/>
<path d="M14830 11969 c-140 -50 -327 -116 -415 -146 -88 -31 -169 -64 -180
-75 -23 -21 -32 17 75 -290 l52 -148 33 0 c43 0 124 35 132 57 4 10 -9 63 -31
126 -21 60 -34 112 -30 116 15 14 186 72 193 66 3 -3 22 -50 41 -103 30 -82
39 -98 59 -100 32 -5 100 15 130 37 l24 19 -37 107 c-20 59 -36 108 -34 110 2
1 43 16 91 33 64 23 89 29 92 19 3 -6 22 -59 43 -117 35 -97 40 -105 66 -108
34 -4 132 34 140 55 6 16 -115 373 -140 410 -8 13 -22 23 -32 22 -9 0 -132
-41 -272 -90z"/>
<path d="M4937 11846 c-129 -48 -211 -174 -212 -326 0 -155 120 -278 347 -354
168 -57 323 -71 428 -40 41 12 67 29 111 73 49 49 61 69 79 130 30 98 25 199
-13 264 -56 96 -186 176 -372 232 -112 33 -306 44 -368 21z m268 -218 c151
-39 266 -93 299 -140 35 -49 11 -135 -44 -158 -96 -40 -453 61 -521 148 -26
34 -25 101 2 136 39 50 110 54 264 14z"/>
<path d="M15000 11154 c-201 -29 -402 -58 -448 -64 -104 -15 -116 -26 -108
-94 4 -28 11 -66 17 -83 9 -28 15 -33 43 -33 44 0 514 68 529 76 32 18 -18
-20 -120 -91 l-113 -78 0 -43 c0 -24 6 -49 14 -57 8 -8 74 -34 145 -58 l130
-43 -262 -38 c-144 -20 -267 -37 -274 -38 -7 0 -17 -9 -23 -20 -14 -25 5 -149
26 -170 13 -13 66 -8 467 50 514 74 493 67 482 153 -13 99 -7 94 -241 173
l-212 71 171 119 c94 65 176 125 184 132 14 14 16 98 4 141 -14 52 -19 52
-411 -5z"/>
<path d="M4579 10854 c-19 -23 -25 -147 -8 -161 13 -10 418 -52 519 -54 l45
-1 -34 -10 c-19 -5 -129 -49 -245 -97 -116 -48 -233 -96 -260 -107 -26 -10
-55 -29 -62 -40 -18 -27 -22 -130 -6 -146 8 -8 185 -28 470 -55 451 -42 457
-43 473 -24 21 25 32 111 20 144 -11 29 0 27 -322 57 -119 11 -225 18 -235 15
-29 -9 5 7 136 60 307 126 427 178 444 195 24 24 34 117 14 142 -11 14 -82 23
-448 58 -239 22 -447 40 -461 40 -15 0 -33 -7 -40 -16z"/>
<path d="M15426 10017 c-21 -21 -24 -36 -30 -148 -50 -889 -282 -1690 -706
-2430 -185 -323 -456 -697 -671 -925 -66 -70 -77 -99 -55 -142 17 -33 34 -42
77 -42 33 0 88 54 240 236 771 926 1222 2083 1275 3270 l7 152 -26 26 c-33 33
-79 35 -111 3z"/>
<path d="M15054 10002 c-48 -7 -57 -34 -66 -180 -40 -729 -228 -1418 -558
-2049 -177 -336 -413 -682 -657 -960 -73 -83 -83 -99 -83 -133 0 -30 6 -43 26
-59 51 -40 86 -25 173 75 759 874 1194 1942 1260 3089 7 119 6 155 -5 176 -14
29 -55 47 -90 41z"/>
<path d="M14530 9938 c-11 -12 -20 -29 -20 -37 -1 -66 -24 -333 -40 -456 -65
-496 -207 -959 -433 -1410 -168 -336 -354 -620 -591 -900 -65 -76 -76 -95 -76
-126 0 -45 36 -79 82 -79 35 0 49 14 181 175 347 425 631 943 805 1471 125
377 205 805 228 1209 6 114 5 121 -16 148 -28 35 -89 38 -120 5z"/>
<path d="M4524 9784 c-25 -24 -26 -28 -19 -107 91 -1119 497 -2146 1193 -3021
181 -228 483 -548 539 -572 38 -16 73 -6 97 28 32 46 23 62 -135 226 -253 262
-441 491 -618 752 -514 759 -819 1605 -906 2514 -13 138 -18 163 -37 183 -30
32 -81 31 -114 -3z"/>
<path d="M4930 9771 c-31 -30 -31 -32 -25 -103 58 -670 226 -1276 516 -1863
235 -476 505 -863 894 -1279 165 -177 199 -198 253 -160 32 22 44 58 31 91 -5
14 -79 97 -163 184 -764 783 -1256 1853 -1360 2958 -16 169 -23 185 -83 197
-27 5 -37 1 -63 -25z"/>
<path d="M5422 9773 c-7 -3 -19 -18 -27 -34 -13 -25 -13 -45 0 -176 78 -755
326 -1449 743 -2083 157 -240 302 -422 521 -659 136 -146 170 -164 225 -120
20 16 26 29 26 60 0 38 -8 48 -136 182 -538 560 -920 1254 -1108 2015 -51 204
-89 422 -106 597 -16 175 -18 182 -47 205 -24 19 -62 25 -91 13z"/>
<path d="M13164 6792 c-51 -37 -104 -98 -104 -120 0 -10 59 -85 131 -167 l131
-150 -30 -25 c-16 -14 -58 -51 -94 -82 -36 -32 -68 -58 -71 -58 -2 0 -60 63
-127 140 -68 78 -131 145 -141 151 -25 13 -67 -9 -130 -70 -33 -31 -49 -55
-49 -72 0 -17 88 -124 310 -379 373 -427 369 -423 408 -409 44 15 142 113 142
141 -1 15 -47 76 -135 176 -74 84 -135 155 -135 157 0 7 182 165 190 165 4 0
64 -66 135 -147 70 -82 135 -152 146 -157 27 -13 67 7 127 65 35 33 52 58 52
74 0 36 -663 795 -695 795 -12 0 -40 -13 -61 -28z"/>
<path d="M7025 6568 c-33 -15 -609 -804 -613 -838 -3 -27 7 -37 140 -136 179
-134 248 -168 339 -168 198 0 357 221 280 390 l-19 41 54 6 c148 15 275 163
261 302 -10 94 -56 151 -237 287 -85 64 -162 118 -170 121 -8 2 -24 0 -35 -5z
m146 -312 c31 -24 58 -52 61 -63 9 -34 -13 -83 -56 -128 -55 -58 -83 -59 -159
-5 l-56 40 72 100 c40 54 74 99 77 100 3 0 30 -20 61 -44z m-260 -357 c30 -22
60 -52 68 -66 19 -38 0 -93 -53 -148 -54 -57 -84 -59 -157 -9 -88 60 -88 48
-3 162 42 56 79 102 83 102 4 0 32 -18 62 -41z"/>
<path d="M12331 6169 c-178 -89 -259 -230 -231 -404 37 -230 228 -536 386
-615 70 -35 180 -40 266 -11 106 35 238 134 238 177 0 44 -80 144 -115 144 -7
0 -33 -16 -57 -36 -108 -91 -189 -85 -286 20 -138 153 -218 390 -162 482 20
32 106 84 140 84 39 0 50 48 28 121 -27 92 -80 102 -207 38z"/>
<path d="M7788 6058 c-17 -14 -63 -101 -313 -592 -193 -379 -188 -354 -75
-412 73 -38 110 -42 132 -16 8 9 82 148 163 307 81 160 184 361 228 447 80
156 80 157 63 183 -16 24 -144 95 -171 95 -6 0 -18 -6 -27 -12z"/>
<path d="M11431 5762 c-122 -44 -116 8 -65 -597 25 -286 47 -526 49 -532 6
-19 57 -16 129 8 93 30 96 35 84 152 -6 56 -7 102 -2 107 9 7 192 70 206 70 3
0 27 -35 51 -78 63 -109 64 -110 145 -88 85 22 127 47 126 72 0 18 -516 856
-552 897 -22 25 -83 21 -171 -11z m220 -449 c49 -83 89 -155 89 -160 0 -5 -36
-21 -80 -35 -44 -14 -80 -23 -80 -20 0 6 -32 277 -45 382 l-6 45 17 -30 c9
-16 57 -98 105 -182z"/>
<path d="M8340 5748 c-73 -28 -173 -128 -222 -223 -120 -232 -159 -498 -95
-638 56 -122 190 -204 373 -227 75 -9 162 3 185 27 25 27 172 479 165 508 -5
20 -26 30 -151 72 -178 58 -183 57 -217 -70 -15 -58 -6 -76 48 -96 21 -8 40
-15 41 -16 8 -4 -66 -200 -76 -203 -24 -8 -101 30 -122 60 -34 47 -36 133 -5
250 45 177 134 327 204 345 65 16 151 -12 233 -78 34 -27 58 -20 115 33 59 54
59 82 0 141 -116 114 -338 168 -476 115z"/>
<path d="M10642 5571 c-239 -38 -252 -42 -252 -87 0 -49 151 -998 161 -1010 6
-8 24 -14 38 -14 53 0 485 70 496 81 13 13 9 100 -5 145 -7 19 -19 38 -28 42
-10 5 -73 0 -154 -13 l-137 -21 -5 25 c-3 15 -10 58 -16 96 -6 39 -13 82 -16
96 l-5 26 126 18 c156 23 162 28 144 129 -11 65 -28 96 -52 96 -7 0 -65 -9
-129 -19 l-117 -18 -10 61 c-5 34 -13 82 -16 107 -8 54 -20 48 155 75 63 9
121 22 129 28 18 14 8 138 -14 172 -19 29 -7 30 -293 -15z"/>
<path d="M9479 5514 c-15 -18 -61 -1005 -48 -1040 4 -12 14 -24 22 -27 9 -3
102 -9 209 -13 213 -8 271 1 348 52 157 104 160 407 4 481 -19 9 -34 19 -34
22 0 3 17 18 38 33 57 40 94 116 100 205 6 96 -11 156 -59 204 -57 57 -130 80
-289 90 -212 13 -275 12 -291 -7z m380 -208 c42 -38 39 -159 -4 -202 -21 -21
-33 -24 -101 -24 -74 0 -76 1 -70 23 3 12 6 69 6 126 l0 103 74 -4 c55 -2 80
-8 95 -22z m7 -449 c20 -23 24 -39 24 -92 0 -76 -14 -111 -51 -131 -29 -14
-95 -18 -145 -8 l-29 5 3 107 c4 164 -2 155 93 150 74 -3 83 -6 105 -31z"/>
</g>
</svg>
